Coordinates
version=1
nRows=16
nColumns=36
inDegrees=yes

Units are S.I. units (second, meters, Newtons, ...)
If the header above contains a line with 'inDegrees', this indicates whether rotational values are in degrees (yes) or radians (no).

endheader
time	pelvis_tilt	pelvis_list	pelvis_rotation	pelvis_tx	pelvis_ty	pelvis_tz	hip_flexion_r	hip_adduction_r	hip_rotation_r	knee_angle_r	knee_angle_r_beta	ankle_angle_r	subtalar_angle_r	mtp_angle_r	hip_flexion_l	hip_adduction_l	hip_rotation_l	knee_angle_l	knee_angle_l_beta	ankle_angle_l	subtalar_angle_l	mtp_angle_l	lumbar_extension	lumbar_bending	lumbar_rotation	arm_flex_r	arm_add_r	arm_rot_r	elbow_flex_r	pro_sup_r	arm_flex_l	arm_add_l	arm_rot_l	elbow_flex_l	pro_sup_l
      0.00000000	     -4.38410770	     -1.01394752	      6.25237106	      0.55737320	      0.93581921	     -0.03676294	      4.52726960	     -9.74329141	      2.50050091	      5.13663172	      0.08965114	      1.83806189	    -17.06726205	     -6.53060624	      3.19166183	     -7.69735317	      2.96943124	      4.31208198	      0.07526003	      7.15355833	    -10.72643628	     -6.53060624	      4.36804667	     -1.66217187	     -5.21352785	     50.54534904	     14.95583522	     72.60648461	    123.71409744	    102.45616081	     36.94575705	     10.59153271	     58.53726061	    113.24274954	    100.62881123
      0.01666670	     -5.29949670	     -1.84582309	      5.34143124	      0.55911167	      0.93204505	     -0.03584054	      5.21198824	     -9.05094425	      3.82712937	      4.15438125	      0.07250763	      3.80572435	    -15.30846485	     -6.64559511	      4.23165728	     -8.69147021	      2.57076862	      3.99312295	      0.06969314	      7.19993677	    -10.50971843	     -6.64559511	      6.63526221	     -0.57886089	     -5.59510992	     52.53765302	     15.16262339	     73.23883152	    125.42907782	    100.43051935	     37.11077803	      9.90394384	     59.04489595	    115.50819621	     97.79299404
      0.03333330	     -6.07343380	     -1.67084951	      4.74115460	      0.55957141	      0.93022775	     -0.03486082	      5.79992929	     -9.48139190	      4.09103002	      3.55093084	      0.06197543	      3.48049516	    -15.17966914	     -6.89655302	      4.74579285	     -8.67574766	      2.32350241	      3.75309342	      0.06550384	      7.17731197	     -9.91598697	     -6.89655302	      7.66244935	     -1.01256499	     -5.62847725	     53.00099804	     15.59667634	     73.84478669	    126.23621837	    104.40391916	     37.00450877	      9.22120655	     59.70468203	    117.56004375	     92.67604526
      0.05000000	     -6.28893697	     -1.36373076	      4.45944917	      0.55961454	      0.92928842	     -0.03450754	      5.95429546	     -9.96821032	      4.02496949	      3.24714372	      0.05667335	      3.98974986	    -14.13664172	     -7.05786094	      4.35995242	     -8.50251311	      2.22471982	      2.98502347	      0.05209849	      7.12956528	     -9.35199132	     -7.05786094	      7.95308483	     -1.48282731	     -5.19736099	     53.42847608	     15.37214357	     74.50128678	    126.44534799	     99.65856135	     37.37348652	      9.13873704	     59.98587873	    117.04045050	     88.54416778
      0.06666670	     -6.57708842	     -1.25004144	      4.08254737	      0.55941826	      0.92871646	     -0.03412747	      6.39873338	    -10.11485609	      4.12923670	      3.17662114	      0.05544250	      4.28525267	    -13.78920156	     -7.12186322	      4.27170489	     -8.53448185	      2.10783565	      2.49341728	      0.04351834	      7.36392838	     -8.91200607	     -7.12186322	      8.29792042	     -1.52629699	     -4.81324686	     53.49997654	     15.14121745	     75.47743980	    126.23928466	     98.64819951	     37.51657780	      9.23145066	     59.90424142	    116.11924900	     86.57236295
      0.08333330	     -6.78534445	     -1.01112128	      3.82193989	      0.55940994	      0.93102244	     -0.03422652	      6.68399607	    -10.33465333	      4.18165040	      3.07220418	      0.05362008	      4.38207796	    -13.37347773	     -7.23071013	      4.20233933	     -8.31844360	      2.10107841	      2.12924086	      0.03716226	      7.33076689	     -8.63448707	     -7.23071013	      8.54373469	     -1.73683622	     -4.61217748	     53.34104657	     14.89857923	     76.00755748	    125.72554221	    102.67132057	     37.28245600	      9.39130141	     59.91524605	    115.41379509	     85.52793016
      0.10000000	     -6.96402960	     -0.86767384	      3.66552850	      0.55917575	      0.93269834	     -0.03386897	      6.96622103	    -10.48041058	      4.00209534	      3.04877056	      0.05321108	      4.61173347	    -12.75170547	     -7.27397510	      4.24503601	     -8.19077228	      1.98726380	      1.92119499	      0.03353118	      7.35836534	     -8.34852597	     -7.27397510	      8.75751748	     -1.84443231	     -4.38366127	     53.12415967	     14.51424439	     76.45837546	    125.52346074	     98.75211404	     36.86222417	      9.68929460	     60.45468240	    115.13107400	     82.08758006
      0.11666670	     -6.72263471	     -0.77571766	      3.50519521	      0.55874792	      0.92937481	     -0.03328403	      6.75490630	    -10.51302734	      4.14847035	      2.98359581	      0.05207357	      4.53619593	    -12.78670197	     -7.36189222	      3.84677808	     -8.13735236	      1.99276549	      1.72939614	      0.03018366	      7.24099666	     -8.38773152	     -7.36189222	      8.33444708	     -1.82653237	     -4.33059416	     53.56314629	     14.63821868	     76.54276426	    124.90501678	    100.81199001	     36.97972478	      9.99017118	     61.09062455	    115.33807598	     81.96875326
      0.13333330	     -6.60840279	     -0.68193395	      3.37079328	      0.55857009	      0.92942861	     -0.03308400	      6.65723271	    -10.58251586	      4.02915944	      2.94529136	      0.05140503	      4.75020845	    -12.31707142	     -7.42700992	      3.65025786	     -8.06174586	      1.68356390	      1.65788666	      0.02893558	      7.30655925	     -7.96718461	     -7.42700992	      8.05938720	     -1.89743364	     -4.26043724	     53.74324500	     14.80478012	     76.58898114	    124.72612044	    100.65720820	     36.99794800	      9.94660855	     61.04046351	    115.37600801	     81.52927336
      0.15000000	     -6.50567192	     -0.60158393	      3.27010266	      0.55837362	      0.93202930	     -0.03338467	      6.54755406	    -10.65355369	      4.04926502	      2.87372994	      0.05015605	      4.69251005	    -12.26809797	     -7.46277044	      3.48505376	     -7.99537076	      1.74955863	      1.60335440	      0.02798381	      7.08050618	     -8.15936262	     -7.46277044	      7.83606750	     -1.94086833	     -4.27234213	     53.74782756	     14.97635725	     76.78118080	    124.59116894	     98.87178456	     36.78848046	     10.02485442	     61.72491519	    116.26666269	     79.81647060
      0.16666670	     -6.32706462	     -0.57315316	      3.13718740	      0.55822401	      0.92949288	     -0.03331256	      6.40795410	    -10.66515344	      3.87109647	      2.89797146	      0.05057914	      4.93056033	    -11.70235704	     -7.48103027	      3.23646898	     -7.98175486	      1.51166300	      1.55765989	      0.02718629	      7.20938093	     -7.86246426	     -7.48103027	      7.52702980	     -1.94860816	     -4.08387605	     53.85308999	     15.12228521	     76.48174342	    124.80396173	     99.99716233	     36.87189411	     10.23638114	     62.40215418	    116.97669996	     80.22038833
      0.18333330	     -6.26320710	     -0.50367985	      3.02479714	      0.55804976	      0.93198377	     -0.03327020	      6.36487952	    -10.73722212	      3.73009784	      2.90013262	      0.05061686	      5.03845379	    -11.29962392	     -7.48928515	      3.10728560	     -7.90743652	      1.52656096	      1.50083495	      0.02619451	      7.03611199	     -7.93753567	     -7.48928515	      7.26492240	     -1.99199997	     -4.15650935	     53.78406181	     15.28115590	     76.57147546	    124.93355912	     99.35822709	     36.84203583	     10.05999916	     62.58689860	    117.58777997	     79.63419094
      0.20000000	     -6.15247667	     -0.43019602	      2.79874894	      0.55790284	      0.93467153	     -0.03267328	      6.29442368	    -10.76162755	      4.03855838	      2.82160684	      0.04924633	      4.91166418	    -11.33878285	     -7.49426761	      2.90936031	     -7.85346146	      1.07255781	      1.45534592	      0.02540058	      7.03249705	     -7.44724618	     -7.49426761	      6.90662076	     -2.06928170	     -3.96999583	     53.82677877	     15.34777582	     76.61592640	    124.79058550	     98.23793784	     36.79338239	     10.04981186	     63.15741480	    118.11151411	     78.98522683
      0.21666670	     -6.05376722	     -0.41618210	      2.82816990	      0.55774488	      0.93437120	     -0.03271645	      6.15013691	    -10.76620883	      3.86142401	      2.72304040	      0.04752602	      4.93503373	    -10.92808691	     -7.49758121	      2.79417418	     -7.83915291	      1.12501475	      1.43288854	      0.02500862	      6.90108459	     -7.49541045	     -7.49758121	      6.55830352	     -2.00118843	     -3.92137166	     54.08288178	     15.44989331	     76.68917417	    124.53600854	     99.04920139	     36.74386585	     10.14739468	     63.90334122	    118.83584662	     79.87392413
      0.23333330	     -5.93791722	     -0.38116734	      2.81407047	      0.55772799	      0.93424549	     -0.03257478	      6.01786162	    -10.78425357	      3.78618148	      2.66766175	      0.04655948	      4.89635364	    -10.70788128	     -7.49817577	      2.65673541	     -7.80639430	      1.16214382	      1.40108386	      0.02445353	      6.81001318	     -7.50863370	     -7.49817577	      6.15758937	     -1.99989997	     -4.01270892	     54.17663066	     15.57799865	     76.78959174	    124.44140662	     98.63391980	     36.78407577	      9.80249797	     63.73441100	    119.11327449	     79.96857944
      0.25000000	     -5.78155751	     -0.35073261	      2.78998708	      0.55761452	      0.93403555	     -0.03251844	      5.82640468	    -10.79282605	      3.86952414	      2.61904555	      0.04571097	      4.70583646	    -10.85433538	     -7.49905057	      2.49846327	     -7.77360889	      1.04419657	      1.36357726	      0.02379891	      6.63630201	     -7.48081844	     -7.49905057	      5.76028525	     -1.99846248	     -4.06299066	     54.26863260	     15.60174941	     76.93500921	    124.48939587	     97.97137833	     36.86715925	      9.39087546	     63.07842990	    119.19782013	     79.67791767
